<svg xmlns="http://www.w3.org/2000/svg" width="30" height="30" viewBox="0 0 30 30" fill="none">
  <path d="M5 25V5H12.895C12.7808 4.36167 12.9333 3.78542 13.3525 3.27125C13.7708 2.75708 14.3242 2.5 15.0125 2.5C15.7008 2.5 16.2542 2.75708 16.6725 3.27125C17.0908 3.78542 17.2354 4.36167 17.1063 5H25V14.4575C24.7808 14.3817 24.5708 14.32 24.37 14.2725C24.17 14.2258 23.9633 14.1792 23.75 14.1325V6.25H6.25V23.75H14.1C14.1308 23.9833 14.17 24.2004 14.2175 24.4012C14.265 24.6012 14.3263 24.8008 14.4012 25H5ZM6.25 22.5088V23.75V6.25V14.1325V14.0387V22.5088ZM9.375 20.3362H14.325C14.3708 20.1237 14.4333 19.9171 14.5125 19.7162L14.7625 19.0863H9.375V20.3362ZM9.375 15.625H17.6C18.0108 15.3367 18.4154 15.0925 18.8137 14.8925C19.2121 14.6917 19.6396 14.5342 20.0962 14.42V14.375H9.375V15.625ZM9.375 10.9125H20.625V9.6625H9.375V10.9125ZM15 5.55375C15.2708 5.55375 15.495 5.46542 15.6725 5.28875C15.85 5.11208 15.9383 4.88792 15.9375 4.61625C15.9367 4.34458 15.8479 4.12083 15.6712 3.945C15.4946 3.76917 15.2708 3.68 15 3.6775C14.7292 3.675 14.5054 3.76375 14.3288 3.94375C14.1521 4.12375 14.0633 4.3475 14.0625 4.615C14.0617 4.8825 14.1504 5.10667 14.3288 5.2875C14.5071 5.46833 14.7308 5.55792 15 5.55375ZM22.5 27.645C21.1075 27.645 19.9263 27.1596 18.9563 26.1888C17.9854 25.2188 17.5 24.0375 17.5 22.645C17.5 21.2525 17.9854 20.0708 18.9563 19.1C19.9271 18.1292 21.1083 17.6442 22.5 17.645C23.8917 17.6458 25.0733 18.1308 26.045 19.1C27.0167 20.0692 27.5017 21.2508 27.5 22.645C27.5 24.0367 27.015 25.2179 26.045 26.1888C25.0733 27.1596 23.8917 27.645 22.5 27.645ZM22.02 26.25H22.9813V23.125H26.1063V22.1625H22.9813V19.0375H22.0187V22.1625H18.8937V23.125H22.0187L22.02 26.25Z" fill="black"/>
</svg>