<svg width="20" height="20" viewBox="0 0 20 20" fill="none" xmlns="http://www.w3.org/2000/svg">
<path fill-rule="evenodd" clip-rule="evenodd" d="M18.5714 5.33333V4.008C18.5714 3.26667 17.9286 2.66667 17.1343 2.66667H14.2857V4H12.8571V2.66667H7.14286V4H5.71429V2.66667H2.86571C2.07143 2.66667 1.42857 3.26667 1.42857 4.008V17.3253C1.42857 18.0667 2.07143 18.6667 2.86571 18.6667H17.1343C17.9286 18.6667 18.5714 18.0667 18.5714 17.3253V6.66667H1.42857V5.33333H18.5714ZM14.2857 1.33333H17.1343C18.7171 1.33333 20 2.52933 20 4.008V17.3253C20.0002 17.6766 19.9262 18.0245 19.7822 18.3491C19.6383 18.6737 19.4272 18.9686 19.1611 19.217C18.8949 19.4654 18.5789 19.6624 18.2312 19.7968C17.8834 19.9311 17.5107 20.0002 17.1343 20H2.86571C2.48933 20.0002 2.1166 19.9311 1.76883 19.7968C1.42106 19.6624 1.10507 19.4654 0.83893 19.217C0.572786 18.9686 0.361706 18.6737 0.217757 18.3491C0.0738083 18.0245 -0.000187413 17.6766 3.56463e-07 17.3253V4.008C3.56463e-07 2.53067 1.28143 1.33333 2.86571 1.33333H5.71429V0H7.14286V1.33333H12.8571V0H14.2857V1.33333ZM4.28571 9.33333H7.14286V10.6667H4.28571V9.33333ZM8.57143 9.33333H11.4286V10.6667H8.57143V9.33333ZM12.8571 9.33333H15.7143V10.6667H12.8571V9.33333ZM4.28571 12H7.14286V13.3333H4.28571V12ZM8.57143 12H11.4286V13.3333H8.57143V12ZM12.8571 12H15.7143V13.3333H12.8571V12ZM4.28571 14.6667H7.14286V16H4.28571V14.6667ZM8.57143 14.6667H11.4286V16H8.57143V14.6667ZM12.8571 14.6667H15.7143V16H12.8571V14.6667Z" fill="black"/>
</svg>
