<svg xmlns="http://www.w3.org/2000/svg" width="17" height="24" viewBox="0 0 17 24" fill="none">
  <path d="M16.2963 16.4237C16.2963 18.3162 15.5356 19.9271 14.014 21.2563C12.4925 22.5854 10.6312 23.25 8.43008 23.25C6.22897 23.25 4.36328 22.5854 2.833 21.2563C1.30272 19.9271 0.536612 18.3158 0.534668 16.4225V5.51C0.534668 4.1875 1.0655 3.06375 2.12717 2.13875C3.18689 1.21292 4.4887 0.75 6.03258 0.75C7.57647 0.75 8.87828 1.2125 9.938 2.1375C10.9977 3.0625 11.5281 4.18667 11.529 5.51V15.8462C11.529 16.5796 11.2301 17.2117 10.6322 17.7425C10.0352 18.2733 9.30703 18.5388 8.44759 18.5388C7.58814 18.5388 6.84925 18.2775 6.23092 17.755C5.61259 17.2325 5.30342 16.5962 5.30342 15.8462V5.46125H6.76175V15.8462C6.76175 16.2454 6.92071 16.5854 7.23863 16.8662C7.55752 17.1479 7.94981 17.2888 8.4155 17.2888C8.8812 17.2888 9.27349 17.1479 9.59238 16.8662C9.91127 16.5846 10.0707 16.2446 10.0707 15.8462V5.48625C10.0649 4.51458 9.67502 3.69083 8.90113 3.015C8.12821 2.33833 7.17203 2 6.03258 2C4.90189 2 3.9462 2.34208 3.1655 3.02625C2.38383 3.71042 1.993 4.53833 1.993 5.51V16.4225C1.98814 17.9667 2.61182 19.2821 3.86404 20.3687C5.11724 21.4562 6.64314 22 8.44175 22C10.2141 22 11.7211 21.4562 12.9626 20.3687C14.2041 19.2812 14.8297 17.9662 14.8395 16.4237V5.46125H16.2978L16.2963 16.4237Z" fill="black"/>
</svg>