<svg width="20" height="20" viewBox="0 0 20 20" fill="none" xmlns="http://www.w3.org/2000/svg">
<path d="M6.875 6.66667C6.875 6.50091 6.94085 6.34194 7.05806 6.22473C7.17527 6.10752 7.33424 6.04167 7.5 6.04167H13.3333C13.4991 6.04167 13.6581 6.10752 13.7753 6.22473C13.8925 6.34194 13.9583 6.50091 13.9583 6.66667C13.9583 6.83243 13.8925 6.9914 13.7753 7.10861C13.6581 7.22582 13.4991 7.29167 13.3333 7.29167H7.5C7.33424 7.29167 7.17527 7.22582 7.05806 7.10861C6.94085 6.9914 6.875 6.83243 6.875 6.66667ZM7.5 8.54167C7.33424 8.54167 7.17527 8.60752 7.05806 8.72473C6.94085 8.84194 6.875 9.00091 6.875 9.16667C6.875 9.33243 6.94085 9.4914 7.05806 9.60861C7.17527 9.72582 7.33424 9.79167 7.5 9.79167H11.6667C11.8324 9.79167 11.9914 9.72582 12.1086 9.60861C12.2258 9.4914 12.2917 9.33243 12.2917 9.16667C12.2917 9.00091 12.2258 8.84194 12.1086 8.72473C11.9914 8.60752 11.8324 8.54167 11.6667 8.54167H7.5Z" fill="black"/>
<path fill-rule="evenodd" clip-rule="evenodd" d="M7.92298 2.70833C6.65048 2.70833 5.43009 3.15918 4.5303 3.9617C3.6305 4.76422 3.125 5.85268 3.125 6.98761V15.9966C3.125 16.8926 3.52408 17.7519 4.23444 18.3855C4.94481 19.0191 5.90827 19.375 6.91288 19.375H18.024C18.4928 19.375 18.9424 19.2089 19.2739 18.9132C19.6054 18.6176 19.7917 18.2166 19.7917 17.7984V4.28491C19.7917 3.86677 19.6054 3.46577 19.2739 3.1701C18.9424 2.87444 18.4928 2.70833 18.024 2.70833H7.92298ZM18.2765 12.6182V4.28491C18.2765 4.22518 18.2499 4.16789 18.2026 4.12565C18.1552 4.08341 18.091 4.05968 18.024 4.05968H7.92298C7.05232 4.05968 6.21732 4.36816 5.60167 4.91725C4.98602 5.46635 4.64015 6.21108 4.64015 6.98761V13.2939C5.29513 12.8542 6.09306 12.6169 6.91288 12.6182H18.2765ZM18.2765 13.9696H6.91288C6.31011 13.9696 5.73204 14.1832 5.30582 14.5633C4.8796 14.9434 4.64015 15.459 4.64015 15.9966C4.64015 16.5342 4.8796 17.0498 5.30582 17.4299C5.73204 17.8101 6.31011 18.0236 6.91288 18.0236H18.024C18.091 18.0236 18.1552 17.9999 18.2026 17.9577C18.2499 17.9154 18.2765 17.8582 18.2765 17.7984V13.9696Z" fill="black"/>
</svg>
