<svg xmlns="http://www.w3.org/2000/svg" width="12" height="9" viewBox="0 0 12 9" fill="none">
<path d="M1.00008 0.666626C0.845322 0.666626 0.693619 0.709722 0.561972 0.791084C0.430326 0.872446 0.323936 0.98886 0.254726 1.12728C0.185515 1.2657 0.156217 1.42066 0.170116 1.5748C0.184014 1.72893 0.240559 1.87615 0.333415 1.99996L5.33342 8.66663C5.41104 8.77012 5.51169 8.85413 5.6274 8.91198C5.74312 8.96984 5.87071 8.99996 6.00008 8.99996C6.12945 8.99996 6.25705 8.96984 6.37276 8.91198C6.48847 8.85413 6.58913 8.77012 6.66675 8.66663L11.6667 1.99996C11.7596 1.87615 11.8161 1.72893 11.83 1.5748C11.8439 1.42066 11.8146 1.2657 11.7454 1.12728C11.6762 0.98886 11.5698 0.872446 11.4382 0.791084C11.3065 0.709722 11.1548 0.666626 11.0001 0.666626H1.00008Z" fill="black"/>
</svg>