<svg width="20" height="20" viewBox="0 0 20 20" fill="none" xmlns="http://www.w3.org/2000/svg">
<path d="M10.0311 15.8111C10.277 15.8111 10.4844 15.7267 10.6533 15.5578C10.8222 15.3889 10.9067 15.1815 10.9067 14.9356C10.9067 14.6896 10.8215 14.4822 10.6511 14.3133C10.4822 14.1444 10.2748 14.06 10.0289 14.06C9.78296 14.06 9.57556 14.1448 9.40667 14.3144C9.23778 14.4841 9.1537 14.6915 9.15445 14.9367C9.15445 15.1826 9.23889 15.39 9.40778 15.5589C9.57815 15.7278 9.78593 15.8122 10.0311 15.8122M9.45667 12.1322H10.53C10.5581 11.6493 10.6489 11.2567 10.8022 10.9544C10.9556 10.653 11.2707 10.2678 11.7478 9.79889C12.2441 9.30333 12.613 8.85926 12.8544 8.46667C13.0959 8.07407 13.217 7.62 13.2178 7.10444C13.2178 6.22889 12.9104 5.53111 12.2956 5.01111C11.68 4.49111 10.9519 4.23111 10.1111 4.23111C9.31185 4.23111 8.63333 4.44815 8.07556 4.88222C7.51778 5.31704 7.10926 5.8163 6.85 6.38L7.87222 6.80333C8.05 6.39889 8.30445 6.04148 8.63556 5.73111C8.96667 5.42 9.44445 5.26444 10.0689 5.26444C10.7889 5.26444 11.3148 5.46222 11.6467 5.85778C11.9793 6.25333 12.1456 6.68815 12.1456 7.16222C12.1456 7.54741 12.0415 7.89111 11.8333 8.19333C11.6259 8.49629 11.3556 8.80074 11.0222 9.10667C10.3778 9.70074 9.95556 10.2044 9.75556 10.6178C9.55556 11.0311 9.45593 11.5359 9.45667 12.1322ZM10.0033 20C8.62111 20 7.32111 19.7378 6.10333 19.2133C4.8863 18.6881 3.82741 17.9756 2.92667 17.0756C2.02593 16.1756 1.31296 15.1178 0.787778 13.9022C0.262593 12.6867 0 11.387 0 10.0033C0 8.61963 0.262593 7.31963 0.787778 6.10333C1.31222 4.8863 2.0237 3.82741 2.92222 2.92667C3.82074 2.02593 4.87889 1.31296 6.09667 0.787778C7.31445 0.262593 8.61444 0 9.99667 0C11.3789 0 12.6789 0.262593 13.8967 0.787778C15.1137 1.31222 16.1726 2.02407 17.0733 2.92333C17.9741 3.82259 18.687 4.88074 19.2122 6.09778C19.7374 7.31481 20 8.61444 20 9.99667C20 11.3789 19.7378 12.6789 19.2133 13.8967C18.6889 15.1144 17.9763 16.1733 17.0756 17.0733C16.1748 17.9733 15.117 18.6863 13.9022 19.2122C12.6874 19.7381 11.3878 20.0007 10.0033 20ZM10 18.8889C12.4815 18.8889 14.5833 18.0278 16.3056 16.3056C18.0278 14.5833 18.8889 12.4815 18.8889 10C18.8889 7.51852 18.0278 5.41667 16.3056 3.69444C14.5833 1.97222 12.4815 1.11111 10 1.11111C7.51852 1.11111 5.41667 1.97222 3.69444 3.69444C1.97222 5.41667 1.11111 7.51852 1.11111 10C1.11111 12.4815 1.97222 14.5833 3.69444 16.3056C5.41667 18.0278 7.51852 18.8889 10 18.8889Z" fill="black"/>
</svg>
