<svg xmlns="http://www.w3.org/2000/svg" width="36" height="36" viewBox="0 0 36 36" fill="none">
  <path fill-rule="evenodd" clip-rule="evenodd" d="M19.1429 7.79988C20.3517 6.62884 21.9725 5.98 23.6555 5.99337C25.3385 6.00674 26.9488 6.68124 28.1389 7.87134C29.329 9.06144 30.0035 10.6717 30.0169 12.3547C30.0303 14.0377 29.3814 15.6585 28.2104 16.8674L28.2014 16.8764L24.8039 20.2739C24.1536 20.9236 23.3714 21.426 22.51 21.7471C21.6487 22.0682 20.7284 22.2004 19.8116 22.1348C18.8947 22.0692 18.0026 21.8074 17.1957 21.367C16.3889 20.9267 15.686 20.318 15.1349 19.5824C15.0155 19.4232 14.9643 19.2232 14.9924 19.0263C15.0205 18.8294 15.1258 18.6517 15.2849 18.5324C15.444 18.413 15.644 18.3618 15.8409 18.3899C16.0379 18.418 16.2155 18.5232 16.3349 18.6824C16.7568 19.2466 17.2951 19.7134 17.9133 20.0512C18.5315 20.3891 19.2151 20.59 19.9178 20.6403C20.6205 20.6907 21.3258 20.5893 21.9859 20.3431C22.6459 20.0969 23.2453 19.7116 23.7434 19.2134L27.1364 15.8204C28.0252 14.8927 28.5152 13.6537 28.5014 12.369C28.4876 11.0843 27.9711 9.85616 27.0625 8.94779C26.1539 8.03942 24.9256 7.52314 23.641 7.5096C22.3563 7.49606 21.1174 7.98635 20.1899 8.87538L18.2459 10.8074C18.1765 10.8788 18.0936 10.9357 18.002 10.9747C17.9104 11.0137 17.8119 11.0341 17.7123 11.0347C17.6127 11.0353 17.5141 11.016 17.422 10.978C17.33 10.9401 17.2464 10.8841 17.1762 10.8135C17.106 10.7429 17.0505 10.659 17.0131 10.5668C16.9756 10.4745 16.9569 10.3757 16.9581 10.2761C16.9592 10.1766 16.9801 10.0782 17.0197 9.98685C17.0592 9.89546 17.1166 9.81287 17.1884 9.74388L19.1429 7.79988ZM13.4879 14.2499C14.7866 13.7653 16.2073 13.7146 17.5373 14.1054C18.8672 14.4961 20.0347 15.3073 20.8649 16.4174C20.9842 16.5765 21.0355 16.7765 21.0073 16.9734C20.9792 17.1704 20.874 17.348 20.7149 17.4674C20.5558 17.5867 20.3557 17.638 20.1588 17.6098C19.9619 17.5817 19.7842 17.4765 19.6649 17.3174C19.2427 16.7534 18.7042 16.2867 18.0859 15.949C17.4675 15.6113 16.7838 15.4105 16.0811 15.3601C15.3784 15.3098 14.673 15.4111 14.0129 15.6571C13.3527 15.9032 12.7532 16.2883 12.2549 16.7864L8.86488 20.1794C7.9829 21.1082 7.49857 22.3448 7.51514 23.6256C7.5317 24.9063 8.04785 26.13 8.95356 27.0357C9.85928 27.9414 11.0829 28.4576 12.3637 28.4741C13.6445 28.4907 14.881 28.0064 15.8099 27.1244L17.7434 25.1939C17.8848 25.0573 18.0743 24.9817 18.2709 24.9834C18.4676 24.9851 18.6557 25.064 18.7947 25.203C18.9338 25.3421 19.0127 25.5302 19.0144 25.7268C19.0161 25.9235 18.9405 26.1129 18.8039 26.2544L16.8569 28.1999C15.648 29.3709 14.0272 30.0198 12.3442 30.0064C10.6612 29.993 9.05094 29.3185 7.86084 28.1284C6.67074 26.9383 5.99624 25.328 5.98287 23.645C5.9695 21.962 6.61834 20.3412 7.78938 19.1324L7.79838 19.1234L11.1959 15.7259C11.8464 15.076 12.6284 14.5728 13.4894 14.2499" fill="black"/>
</svg>