<svg xmlns="http://www.w3.org/2000/svg" width="43" height="44" viewBox="0 0 43 44" fill="none">
  <path d="M19.0203 29.4745H12.6796C10.6586 29.4745 8.93624 28.7461 7.51246 27.2892C6.08868 25.8323 5.3762 24.0692 5.375 22C5.37381 19.9308 6.08629 18.1677 7.51246 16.7108C8.93863 15.254 10.661 14.5249 12.6796 14.5237H19.0203V16.357H12.6796C11.1627 16.357 9.86492 16.9095 8.78633 18.0143C7.70656 19.1205 7.16667 20.449 7.16667 22C7.16667 23.551 7.70656 24.879 8.78633 25.9838C9.86611 27.0887 11.1639 27.6412 12.6796 27.6412H19.0203V29.4745ZM15.2292 22.9167V21.0833H27.7708V22.9167H15.2292ZM23.9815 29.4745V27.6412H30.3204C31.8373 27.6412 33.1351 27.0887 34.2137 25.9838C35.2934 24.879 35.8333 23.551 35.8333 22C35.8333 20.449 35.2934 19.1211 34.2137 18.0162C33.1339 16.9113 31.8361 16.3588 30.3204 16.3588H23.9815V14.5255H30.3204C32.3414 14.5255 34.0644 15.254 35.4893 16.7108C36.9143 18.1677 37.6262 19.9308 37.625 22C37.6238 24.0692 36.9113 25.8323 35.4875 27.2892C34.0638 28.7461 32.3414 29.4751 30.3204 29.4763L23.9815 29.4745Z" fill="black"/>
</svg>