<svg xmlns="http://www.w3.org/2000/svg" width="24" height="24" viewBox="0 0 24 24" fill="none">
  <path d="M6.18999 12.3449C6.37183 12.1635 6.61817 12.0616 6.87499 12.0616C7.13182 12.0616 7.37816 12.1635 7.55999 12.3449C7.64983 12.4346 7.72109 12.5411 7.76971 12.6584C7.81834 12.7757 7.84336 12.9014 7.84336 13.0284C7.84336 13.1553 7.81834 13.281 7.76971 13.3983C7.72109 13.5156 7.64983 13.6221 7.55999 13.7119L5.50499 15.7639C5.32494 15.9432 5.18207 16.1563 5.08459 16.391C4.9871 16.6256 4.93692 16.8772 4.93692 17.1314C4.93692 17.3855 4.9871 17.6371 5.08459 17.8718C5.18207 18.1064 5.32494 18.3195 5.50499 18.4989C5.86867 18.8616 6.36135 19.0653 6.87499 19.0653C7.38864 19.0653 7.88132 18.8616 8.24499 18.4989L13.039 13.7119C13.1288 13.6221 13.2001 13.5156 13.2487 13.3983C13.2973 13.281 13.3224 13.1553 13.3224 13.0284C13.3224 12.9014 13.2973 12.7757 13.2487 12.6584C13.2001 12.5411 13.1288 12.4346 13.039 12.3449C12.949 12.2551 12.8776 12.1485 12.8289 12.0311C12.7802 11.9138 12.7551 11.7879 12.7551 11.6609C12.7551 11.5338 12.7802 11.4079 12.8289 11.2906C12.8776 11.1732 12.949 11.0666 13.039 10.9769C13.2208 10.7955 13.4672 10.6936 13.724 10.6936C13.9808 10.6936 14.2272 10.7955 14.409 10.9769C14.6786 11.2462 14.8924 11.566 15.0383 11.918C15.1842 12.27 15.2593 12.6473 15.2593 13.0284C15.2593 13.4094 15.1842 13.7867 15.0383 14.1387C14.8924 14.4907 14.6786 14.8105 14.409 15.0799L9.61399 19.8669C8.88664 20.5923 7.90128 20.9997 6.87399 20.9997C5.8467 20.9997 4.86134 20.5923 4.13399 19.8669C3.77437 19.508 3.48905 19.0816 3.29438 18.6123C3.09971 18.143 2.99951 17.6399 2.99951 17.1319C2.99951 16.6238 3.09971 16.1207 3.29438 15.6514C3.48905 15.1821 3.77437 14.7558 4.13399 14.3969L6.18999 12.3439V12.3449ZM17.81 11.6549C17.6282 11.8362 17.3818 11.9381 17.125 11.9381C16.8682 11.9381 16.6218 11.8362 16.44 11.6549C16.3502 11.5651 16.2789 11.4586 16.2303 11.3413C16.1817 11.224 16.1566 11.0983 16.1566 10.9714C16.1566 10.8444 16.1817 10.7187 16.2303 10.6014C16.2789 10.4841 16.3502 10.3776 16.44 10.2879L18.495 8.23586C18.675 8.05654 18.8179 7.84343 18.9154 7.60876C19.0129 7.37408 19.0631 7.12247 19.0631 6.86836C19.0631 6.61424 19.0129 6.36263 18.9154 6.12796C18.8179 5.89329 18.675 5.68017 18.495 5.50086C18.1313 5.13813 17.6386 4.93443 17.125 4.93443C16.6113 4.93443 16.1187 5.13813 15.755 5.50086L10.962 10.2879C10.8722 10.3776 10.8009 10.4841 10.7523 10.6014C10.7037 10.7187 10.6786 10.8444 10.6786 10.9714C10.6786 11.0983 10.7037 11.224 10.7523 11.3413C10.8009 11.4586 10.8722 11.5651 10.962 11.6549C11.052 11.7446 11.1234 11.8512 11.1721 11.9686C11.2208 12.0859 11.2459 12.2118 11.2459 12.3389C11.2459 12.4659 11.2208 12.5918 11.1721 12.7091C11.1234 12.8265 11.052 12.9331 10.962 13.0229C10.7802 13.2042 10.5338 13.3061 10.277 13.3061C10.0202 13.3061 9.77383 13.2042 9.59199 13.0229C9.32244 12.7535 9.1086 12.4337 8.9627 12.0817C8.81681 11.7297 8.74171 11.3524 8.74171 10.9714C8.74171 10.5903 8.81681 10.213 8.9627 9.86099C9.1086 9.50898 9.32244 9.18918 9.59199 8.91986L14.387 4.13286C15.1143 3.4074 16.0997 3 17.127 3C18.1543 3 19.1396 3.4074 19.867 4.13286C20.2266 4.49176 20.5119 4.91807 20.7066 5.38738C20.9013 5.85668 21.0015 6.35978 21.0015 6.86786C21.0015 7.37594 20.9013 7.87903 20.7066 8.34834C20.5119 8.81764 20.2266 9.24395 19.867 9.60286L17.81 11.6559V11.6549Z" fill="black"/>
</svg>