<svg width="22" height="20" viewBox="0 0 22 20" fill="none" xmlns="http://www.w3.org/2000/svg">
<g clip-path="url(#clip0_2703_269)">
<path d="M10.7229 19.9999C11.4338 19.9999 12.1157 19.7365 12.6184 19.2677C13.1212 18.7988 13.4036 18.1629 13.4036 17.4999H8.04214C8.04214 18.1629 8.32457 18.7988 8.8273 19.2677C9.33004 19.7365 10.0119 19.9999 10.7229 19.9999ZM10.7229 2.39739L9.65459 2.59864C8.44262 2.82845 7.35312 3.44196 6.57069 4.33521C5.78827 5.22845 5.36104 6.3465 5.36142 7.49989C5.36142 8.28489 5.18181 10.2461 4.74619 12.1774C4.53173 13.1361 4.24221 14.1349 3.85753 14.9999H17.5882C17.2035 14.1349 16.9153 13.1374 16.6995 12.1774C16.2639 10.2461 16.0843 8.28489 16.0843 7.49989C16.0844 6.34671 15.657 5.22896 14.8746 4.33597C14.0922 3.44298 13.0029 2.82966 11.7911 2.59989L10.7229 2.39739ZM19.0599 14.9999C19.3588 15.5586 19.7046 16.0011 20.1054 16.2499H1.34033C1.7411 16.0011 2.08691 15.5586 2.38581 14.9999C3.59214 12.7499 4.02105 8.59989 4.02105 7.49989C4.02105 4.47489 6.32648 1.94989 9.3892 1.37364C9.3705 1.19983 9.39106 1.0243 9.44956 0.858355C9.50807 0.692414 9.60322 0.53975 9.72888 0.410211C9.85454 0.280671 10.0079 0.177131 10.1791 0.106269C10.3503 0.0354064 10.5356 -0.00120544 10.7229 -0.00120544C10.9102 -0.00120544 11.0954 0.0354064 11.2666 0.106269C11.4378 0.177131 11.5912 0.280671 11.7168 0.410211C11.8425 0.53975 11.9377 0.692414 11.9962 0.858355C12.0547 1.0243 12.0752 1.19983 12.0565 1.37364C13.5717 1.66058 14.934 2.42728 15.9123 3.5438C16.8907 4.66033 17.425 6.05798 17.4247 7.49989C17.4247 8.59989 17.8536 12.7499 19.0599 14.9999Z" fill="black"/>
</g>
<defs>
<clipPath id="clip0_2703_269">
<rect width="21.4458" height="20" fill="white"/>
</clipPath>
</defs>
</svg>
