<svg xmlns="http://www.w3.org/2000/svg" width="25" height="25" viewBox="0 0 25 25" fill="none">
  <rect width="25" height="25" rx="10" fill="#FC6767"/>
  <path d="M7.22952 7.22952C7.30209 7.15677 7.3883 7.09904 7.48322 7.05966C7.57813 7.02027 7.67988 7 7.78265 7C7.88541 7 7.98716 7.02027 8.08207 7.05966C8.17699 7.09904 8.2632 7.15677 8.33577 7.22952L12.4701 11.3655L16.6045 7.22952C16.6772 7.15688 16.7634 7.09926 16.8583 7.05995C16.9532 7.02064 17.0549 7.00041 17.1576 7.00041C17.2604 7.00041 17.3621 7.02064 17.457 7.05995C17.5519 7.09926 17.6381 7.15688 17.7108 7.22952C17.7834 7.30216 17.841 7.38839 17.8803 7.4833C17.9197 7.5782 17.9399 7.67992 17.9399 7.78265C17.9399 7.88537 17.9197 7.98709 17.8803 8.082C17.841 8.1769 17.7834 8.26313 17.7108 8.33577L13.5748 12.4701L17.7108 16.6045C17.7834 16.6772 17.841 16.7634 17.8803 16.8583C17.9197 16.9532 17.9399 17.0549 17.9399 17.1576C17.9399 17.2604 17.9197 17.3621 17.8803 17.457C17.841 17.5519 17.7834 17.6381 17.7108 17.7108C17.6381 17.7834 17.5519 17.841 17.457 17.8803C17.3621 17.9197 17.2604 17.9399 17.1576 17.9399C17.0549 17.9399 16.9532 17.9197 16.8583 17.8803C16.7634 17.841 16.6772 17.7834 16.6045 17.7108L12.4701 13.5748L8.33577 17.7108C8.26313 17.7834 8.1769 17.841 8.082 17.8803C7.98709 17.9197 7.88537 17.9399 7.78265 17.9399C7.67992 17.9399 7.5782 17.9197 7.4833 17.8803C7.38839 17.841 7.30216 17.7834 7.22952 17.7108C7.15688 17.6381 7.09926 17.5519 7.05995 17.457C7.02064 17.3621 7.00041 17.2604 7.00041 17.1576C7.00041 17.0549 7.02064 16.9532 7.05995 16.8583C7.09926 16.7634 7.15688 16.6772 7.22952 16.6045L11.3655 12.4701L7.22952 8.33577C7.15677 8.2632 7.09904 8.17699 7.05966 8.08207C7.02027 7.98716 7 7.88541 7 7.78265C7 7.67988 7.02027 7.57813 7.05966 7.48322C7.09904 7.3883 7.15677 7.30209 7.22952 7.22952Z" fill="white"/>
</svg>