<svg xmlns="http://www.w3.org/2000/svg" width="24" height="24" viewBox="0 0 24 24" fill="none">
  <path d="M10 3V7C10 7.26522 9.89464 7.51957 9.70711 7.70711C9.51957 7.89464 9.26522 8 9 8H5M19 4V20C19 20.2652 18.8946 20.5196 18.7071 20.7071C18.5196 20.8946 18.2652 21 18 21H6C5.73478 21 5.48043 20.8946 5.29289 20.7071C5.10536 20.5196 5 20.2652 5 20V7.914C5.00006 7.64881 5.10545 7.39449 5.293 7.207L9.207 3.293C9.39449 3.10545 9.6488 3.00006 9.914 3H18C18.2652 3 18.5196 3.10536 18.7071 3.29289C18.8946 3.48043 19 3.73478 19 4ZM15 5H15.01V5.01H15V5ZM13 7H13.01V7.01H13V7ZM15 9H15.01V9.01H15V9ZM13 11H13.01V11.01H13V11ZM15 13H15.01V13.01H15V13ZM13 15H13.01V15.01H13V15ZM15 17H15.01V17.01H15V17ZM13 19H13.01V19.01H13V19Z" stroke="black" stroke-width="2" stroke-linecap="round"/>
</svg>