<svg width="23" height="19" viewBox="0 0 23 19" fill="none" xmlns="http://www.w3.org/2000/svg">
<path d="M21.5625 19C21.5625 19 23 19 23 17.4167C23 15.8333 21.5625 11.0833 15.8125 11.0833C10.0625 11.0833 8.625 15.8333 8.625 17.4167C8.625 19 10.0625 19 10.0625 19H21.5625ZM10.0941 17.4167L10.0625 17.4103C10.0639 16.9923 10.3026 15.7795 11.155 14.687C11.9485 13.6626 13.3429 12.6667 15.8125 12.6667C18.2807 12.6667 19.6751 13.6642 20.47 14.687C21.3224 15.7795 21.5596 16.9939 21.5625 17.4103L21.551 17.4135L21.5309 17.4167H10.0941ZM15.8125 7.91667C16.575 7.91667 17.3063 7.58304 17.8454 6.98917C18.3846 6.39531 18.6875 5.58985 18.6875 4.75C18.6875 3.91015 18.3846 3.10469 17.8454 2.51083C17.3063 1.91696 16.575 1.58333 15.8125 1.58333C15.05 1.58333 14.3187 1.91696 13.7796 2.51083C13.2404 3.10469 12.9375 3.91015 12.9375 4.75C12.9375 5.58985 13.2404 6.39531 13.7796 6.98917C14.3187 7.58304 15.05 7.91667 15.8125 7.91667ZM20.125 4.75C20.125 5.37378 20.0135 5.99145 19.7967 6.56775C19.58 7.14404 19.2624 7.66768 18.8619 8.10876C18.4614 8.54984 17.986 8.89972 17.4628 9.13843C16.9396 9.37714 16.3788 9.5 15.8125 9.5C15.2462 9.5 14.6854 9.37714 14.1622 9.13843C13.639 8.89972 13.1636 8.54984 12.7631 8.10876C12.3626 7.66768 12.045 7.14404 11.8283 6.56775C11.6115 5.99145 11.5 5.37378 11.5 4.75C11.5 3.49022 11.9544 2.28204 12.7631 1.39124C13.5719 0.500445 14.6688 0 15.8125 0C16.9562 0 18.0531 0.500445 18.8619 1.39124C19.6706 2.28204 20.125 3.49022 20.125 4.75ZM9.9705 11.5267C9.39515 11.3286 8.80254 11.1975 8.20237 11.1356C7.8651 11.0994 7.52637 11.0819 7.1875 11.0833C1.4375 11.0833 0 15.8333 0 17.4167C0 18.4722 0.479167 19 1.4375 19H7.498C7.285 18.5057 7.17873 17.9638 7.1875 17.4167C7.1875 15.8175 7.72944 14.1835 8.75438 12.8187C9.10369 12.3532 9.5105 11.9178 9.9705 11.5267ZM7.0725 12.6667C6.22225 14.075 5.76271 15.7255 5.75 17.4167H1.4375C1.4375 17.005 1.67325 15.7858 2.53 14.687C3.31344 13.68 4.67475 12.6983 7.0725 12.6683V12.6667ZM2.15625 5.54167C2.15625 4.28189 2.6106 3.07371 3.41935 2.18291C4.2281 1.29211 5.325 0.791667 6.46875 0.791667C7.6125 0.791667 8.7094 1.29211 9.51815 2.18291C10.3269 3.07371 10.7812 4.28189 10.7812 5.54167C10.7812 6.80145 10.3269 8.00963 9.51815 8.90042C8.7094 9.79122 7.6125 10.2917 6.46875 10.2917C5.325 10.2917 4.2281 9.79122 3.41935 8.90042C2.6106 8.00963 2.15625 6.80145 2.15625 5.54167ZM6.46875 2.375C5.70625 2.375 4.97499 2.70863 4.43582 3.3025C3.89665 3.89636 3.59375 4.70181 3.59375 5.54167C3.59375 6.38152 3.89665 7.18697 4.43582 7.78084C4.97499 8.3747 5.70625 8.70833 6.46875 8.70833C7.23125 8.70833 7.96251 8.3747 8.50168 7.78084C9.04085 7.18697 9.34375 6.38152 9.34375 5.54167C9.34375 4.70181 9.04085 3.89636 8.50168 3.3025C7.96251 2.70863 7.23125 2.375 6.46875 2.375Z" fill="black"/>
</svg>
