<svg width="22" height="23" viewBox="0 0 22 23" fill="none" xmlns="http://www.w3.org/2000/svg">
<path d="M6.00059 2.96201C6.00059 2.63901 5.86888 2.32924 5.63443 2.10085C5.39998 1.87245 5.082 1.74414 4.75044 1.74414H2.25015C1.91859 1.74414 1.60061 1.87245 1.36616 2.10085C1.13171 2.32924 1 2.63901 1 2.96201V20.0122C1 20.3352 1.13171 20.6449 1.36616 20.8733C1.60061 21.1017 1.91859 21.23 2.25015 21.23H4.75044C5.082 21.23 5.39998 21.1017 5.63443 20.8733C5.86888 20.6449 6.00059 20.3352 6.00059 20.0122M6.00059 2.96201V20.0122M6.00059 2.96201C6.00059 2.63901 6.1323 2.32924 6.36675 2.10085C6.60119 1.87245 6.91917 1.74414 7.25073 1.74414H9.75103C10.0826 1.74414 10.4006 1.87245 10.635 2.10085C10.8695 2.32924 11.0012 2.63901 11.0012 2.96201V20.0122C11.0012 20.3352 10.8695 20.6449 10.635 20.8733C10.4006 21.1017 10.0826 21.23 9.75103 21.23H7.25073C6.91917 21.23 6.60119 21.1017 6.36675 20.8733C6.1323 20.6449 6.00059 20.3352 6.00059 20.0122M1 6.61561H6.00059M6.00059 16.3586H11.0012" stroke="black" stroke-width="2" stroke-linecap="round" stroke-linejoin="round"/>
<path d="M12.2515 7.83315L17.252 6.61528M14.7518 16.3582L19.6561 15.1647M12.0052 2.42582L14.7355 1.78035C15.4381 1.61593 16.1519 2.01174 16.3382 2.67183L20.9575 19.0132C21.039 19.3123 21.0029 19.6304 20.8563 19.905C20.7097 20.1796 20.4631 20.391 20.1649 20.4978L19.9986 20.5477L17.2683 21.1932C16.5657 21.3576 15.8519 20.9618 15.6656 20.3017L11.0463 3.96033C10.9648 3.66116 11.0009 3.34313 11.1475 3.06853C11.2941 2.79392 11.5407 2.58253 11.8389 2.47575L12.0052 2.42582Z" stroke="black" stroke-width="2" stroke-linecap="round" stroke-linejoin="round"/>
</svg>
