<svg width="21" height="20" viewBox="0 0 21 20" fill="none" xmlns="http://www.w3.org/2000/svg">
<path d="M20.3443 8.25102L11.6552 0.456246C11.3294 0.164106 10.8875 0 10.4268 0C9.96613 0 9.52429 0.164106 9.19842 0.456246L0.509404 8.25102C0.34725 8.3954 0.218712 8.56727 0.131262 8.75662C0.0438128 8.94597 -0.000802275 9.14902 1.09194e-05 9.35398V18.7077C1.09194e-05 18.9144 0.0915558 19.1127 0.254506 19.2589C0.417457 19.4051 0.638465 19.4872 0.868912 19.4872H7.82012C8.05057 19.4872 8.27158 19.4051 8.43453 19.2589C8.59748 19.1127 8.68903 18.9144 8.68903 18.7077V13.2514H12.1646V18.7077C12.1646 18.9144 12.2562 19.1127 12.4191 19.2589C12.5821 19.4051 12.8031 19.4872 13.0335 19.4872H19.9847C20.2152 19.4872 20.4362 19.4051 20.5992 19.2589C20.7621 19.1127 20.8536 18.9144 20.8536 18.7077V9.35398C20.8545 9.14902 20.8098 8.94597 20.7224 8.75662C20.6349 8.56727 20.5064 8.3954 20.3443 8.25102ZM19.1158 17.9282H13.9024V12.4719C13.9024 12.2652 13.8109 12.0669 13.6479 11.9207C13.485 11.7745 13.264 11.6924 13.0335 11.6924H7.82012C7.58968 11.6924 7.36867 11.7745 7.20572 11.9207C7.04277 12.0669 6.95122 12.2652 6.95122 12.4719V17.9282H1.73781V9.35398L10.4268 1.55921L19.1158 9.35398V17.9282Z" fill="black"/>
</svg>
