<svg width="22" height="22" viewBox="0 0 22 22" fill="none" xmlns="http://www.w3.org/2000/svg">
<path d="M21.6496 15.3604C21.6496 19.3006 19.3006 21.6496 15.3604 21.6496H14.0722C13.4769 21.6496 12.9897 21.1625 12.9897 20.5671V14.3212C12.9897 14.0289 13.2279 13.78 13.5202 13.78L15.4253 13.7475C15.5769 13.7367 15.7068 13.6284 15.7392 13.4769L16.1181 11.4093C16.1506 11.2145 15.999 11.0305 15.7934 11.0305L13.4877 11.0629C13.1846 11.0629 12.9465 10.8248 12.9356 10.5325L12.8923 7.88045C12.8923 7.70725 13.033 7.55572 13.2171 7.55572L15.815 7.5124C15.999 7.5124 16.1398 7.37169 16.1398 7.18767L16.0965 4.5897C16.0965 4.40568 15.9557 4.26497 15.7717 4.26497L12.849 4.30828C11.0521 4.34075 9.62324 5.81291 9.65571 7.60983L9.70984 10.5866C9.72066 10.8897 9.48252 11.1279 9.17942 11.1387L7.88045 11.1604C7.69643 11.1604 7.55572 11.3011 7.55572 11.4851L7.58819 13.5418C7.58819 13.7258 7.7289 13.8666 7.91292 13.8666L9.2119 13.8449C9.51499 13.8449 9.75314 14.0831 9.76396 14.3753L9.86138 20.5455C9.87221 21.1516 9.38509 21.6496 8.7789 21.6496H6.2892C2.34898 21.6496 0 19.3006 0 15.3496V6.2892C0 2.34898 2.34898 0 6.2892 0H15.3604C19.3006 0 21.6496 2.34898 21.6496 6.2892V15.3604Z" fill="black"/>
</svg>
