<svg width="31" height="30" viewBox="0 0 31 30" fill="none" xmlns="http://www.w3.org/2000/svg">
<path d="M13.6892 28.4337C2.14316 16.4951 0 15.2698 0 10.8822C0 4.87211 6.83085 0 15.2572 0C23.6835 0 30.5144 4.87211 30.5144 10.8822C30.5144 15.2698 28.3712 16.4951 16.8252 28.4337C16.0675 29.2144 14.4468 29.2143 13.6892 28.4337ZM15.2572 15.4164C18.7682 15.4164 21.6143 13.3864 21.6143 10.8822C21.6143 8.37799 18.7682 6.34795 15.2572 6.34795C11.7462 6.34795 8.90002 8.37799 8.90002 10.8822C8.90002 13.3864 11.7462 15.4164 15.2572 15.4164Z" fill="black"/>
</svg>
