<svg width="37" height="24" viewBox="0 0 37 24" fill="none" xmlns="http://www.w3.org/2000/svg">
<path d="M18.2572 0C8.21573 0 0 5.4 0 12C0 18.6 8.21573 24 18.2572 24C28.2986 24 36.5144 18.6 36.5144 12C36.5144 5.4 28.2986 0 18.2572 0ZM30.1244 7.6H25.5601C25.2558 6.2 24.9515 5 24.3429 4C26.4729 4.6 28.6029 6 30.1244 7.6ZM31.9501 12C31.9501 12.6 31.9501 13 31.6458 13.6H25.8643C25.8643 13.2 25.8643 12.6 25.8643 12C25.8643 11.4 25.8643 11 25.8643 10.4H31.6458C31.9501 11 31.9501 11.4 31.9501 12ZM18.2572 21C17.6486 20.6 16.4315 19.2 15.8229 16.6H20.6915C20.0829 19 18.8658 20.6 18.2572 21ZM15.2143 13.6C15.2143 13 15.2143 12.6 15.2143 12C15.2143 11.4 15.2143 11 15.2143 10.4H21.3V12C21.3 12 21.3 13 21.3 13.6H15.2143ZM4.5643 12C4.5643 11.4 4.5643 11 4.86858 10.4H10.65V12C10.65 12 10.65 13 10.65 13.6H4.86858C4.5643 13 4.5643 12.6 4.5643 12ZM18.2572 3C18.8658 3.2 20.0829 4.8 20.6915 7.4H15.8229C16.4315 4.8 17.6486 3.2 18.2572 3ZM12.4757 3.8C11.8672 5 11.5629 6.2 11.2586 7.6H6.39001C7.91145 6 10.0415 4.6 12.4757 3.8ZM6.39001 16.4H10.9543C11.2586 17.8 11.5629 19 12.1715 20C10.0415 19.4 7.91145 18 6.39001 16.4ZM24.0386 20.2C24.6472 19.2 24.9515 18 25.2558 16.6H29.8201C28.6029 18 26.4729 19.4 24.0386 20.2Z" fill="black"/>
</svg>
